HIERARCHY
ROOT hip
{
	OFFSET 0.000000 0.000000 0.000000 
	CHANNELS 6 Xposition Yposition Zposition Xrotation Zrotation Yrotation
	JOINT abdomen
	{
		OFFSET 0.000000 3.402643 0.000000 
		CHANNELS 3 Xrotation Zrotation Yrotation
		JOINT chest
		{
			OFFSET 0.000000 8.438565 -0.680529 
			CHANNELS 3 Xrotation Zrotation Yrotation
			JOINT neck
			{
				OFFSET 0.000000 10.207942 -0.272212 
				CHANNELS 3 Xrotation Zrotation Yrotation
				JOINT head
				{
					OFFSET 0.000000 3.130431 0.000000 
					CHANNELS 3 Xrotation Zrotation Yrotation
					End Site
					{
						OFFSET 0.000000 3.130435 0.000000 
					}
				}
			}
			JOINT lCollar
			{
				OFFSET 3.470700 6.669187 -0.816635 
				CHANNELS 3 Yrotation Zrotation Xrotation
				JOINT lShldr
				{
					OFFSET 3.198488 0.000000 0.000000 
					CHANNELS 3 Zrotation Yrotation Xrotation
					JOINT lForeArm
					{
						OFFSET 10.139888 0.000000 0.000000 
						CHANNELS 3 Yrotation Zrotation Xrotation
						JOINT lHand
						{
							OFFSET 8.370511 0.000000 0.000000 
							CHANNELS 3 Zrotation Yrotation Xrotation
							End Site
							{
								OFFSET 4.083176 0.000000 0.000000 
							}
						}
					}
				}
			}
			JOINT rCollar
			{
				OFFSET -3.470700 6.669187 -0.816635 
				CHANNELS 3 Yrotation Zrotation Xrotation
				JOINT rShldr
				{
					OFFSET -3.198488 0.000000 0.000000 
					CHANNELS 3 Zrotation Yrotation Xrotation
					JOINT rForeArm
					{
						OFFSET -10.139888 0.000000 0.000000 
						CHANNELS 3 Yrotation Zrotation Xrotation
						JOINT rHand
						{
							OFFSET -8.370511 0.000000 0.000000 
							CHANNELS 3 Zrotation Yrotation Xrotation
							End Site
							{
								OFFSET -4.083176 0.000000 0.000000 
							}
						}
					}
				}
			}
		}
	}
	JOINT lThigh
	{
		OFFSET 5.308129 -1.633274 1.361059 
		CHANNELS 3 Xrotation Zrotation Yrotation
		JOINT lShin
		{
			OFFSET -2.041588 -20.007561 0.000000 
			CHANNELS 3 Xrotation Zrotation Yrotation
			JOINT lFoot
			{
				OFFSET 0.000000 -19.190928 -1.224953 
				CHANNELS 3 Xrotation Yrotation Zrotation
				End Site
				{
					OFFSET 0.000000 -2.449906 4.627600 
				}
			}
		}
	}
	JOINT rThigh
	{
		OFFSET -5.308129 -1.633274 1.361059 
		CHANNELS 3 Xrotation Zrotation Yrotation
		JOINT rShin
		{
			OFFSET 2.041588 -20.007561 0.000000 
			CHANNELS 3 Xrotation Zrotation Yrotation
			JOINT rFoot
			{
				OFFSET 0.000000 -19.190928 -1.224953 
				CHANNELS 3 Xrotation Yrotation Zrotation
				End Site
				{
					OFFSET 0.000000 -2.449906 4.627600 
				}
			}
		}
	}
}
MOTION
Frames: 15
Frame Time: 0.033333
0.813543 48.556290 35.602848 -0.385007 -8.417782 -80.627838 0.000000 0.000000 0.000000 1.796905 -0.331868 -8.457733 7.702816 3.841310 -7.241595 -9.081656 -2.623943 2.779237 -9.330317 0.672157 2.121630 -53.348064 -9.336916 16.790224 -58.415352 -8.584014 18.668976 5.648484 4.732092 -3.438018 -10.254208 9.044788 2.363002 34.622551 -41.791653 40.543110 45.760254 14.875660 17.952223 -4.895155 -7.755947 -3.381087 30.252628 9.326609 15.110851 0.211599 -5.526715 -9.138651 -16.760578 0.698492 -4.809583 -9.528312 -5.574235 -5.013023 12.118816 6.425785 -11.468264 3.861206 0.013930 0.623511 
3.134465 48.398857 35.986294 -2.375208 -7.747325 -80.343987 0.000000 0.000000 0.000000 2.081398 -2.039670 -8.599803 7.777634 2.789569 -7.931341 -9.229813 -2.724057 2.789950 -9.678576 -1.077060 2.058888 -50.631283 -16.019356 14.021485 -59.102226 -7.724066 18.940996 6.759764 3.826746 -3.470871 -10.358575 6.856334 2.235977 35.564747 -44.849052 39.850281 44.686958 14.238245 20.201162 -1.027150 -7.766502 -3.527206 26.061172 6.621107 11.471262 2.096437 -5.433606 -5.201631 -19.036493 0.653677 -3.945757 -13.563899 -9.042547 -5.820080 14.860636 6.541302 -7.421481 2.800653 -0.001358 0.330677 
5.333696 48.247719 36.385468 -2.992478 -7.216813 -80.776604 0.000000 0.000000 0.000000 2.140788 -2.547051 -8.034974 8.266999 2.491846 -7.923957 -9.801623 -2.381537 2.227459 -9.428007 -0.838620 2.085267 -49.411648 -21.811386 12.323469 -58.386192 -7.291063 18.303120 8.786512 2.250451 -3.565982 -9.983805 6.297315 2.268352 35.384338 -47.193890 40.385166 44.855190 13.816395 20.399921 2.337596 -7.185592 -3.634207 18.694773 5.341092 8.922188 10.910003 -4.959466 -3.633285 -20.868336 0.524658 -2.770073 -18.197737 -11.138642 -6.000764 19.589462 6.718745 -2.417271 0.838091 -0.009895 -0.128658 
7.306786 48.347511 36.565926 -2.385901 -7.893628 -82.348351 0.000000 0.000000 0.000000 3.263746 -2.018208 -6.668070 8.356009 2.468243 -7.002388 -9.797441 -2.057220 1.543489 -8.058933 -0.736249 3.265425 -48.143044 -27.417351 10.482127 -57.362865 -7.306167 15.124983 11.555617 0.484845 -3.742590 -8.935994 7.090881 3.476337 36.010204 -46.790665 39.792477 44.941116 13.789508 20.347900 4.822150 -6.244471 -3.667340 13.709155 5.077901 8.210266 17.571365 -4.620088 -1.446069 -22.109423 0.442016 -2.252425 -22.086065 -10.876862 -5.636509 26.678022 6.337628 0.961585 -0.982225 0.007024 -0.615505 
9.166248 48.667656 36.561016 -1.876186 -8.520886 -84.194740 0.000000 0.000000 0.000000 4.689722 -1.761664 -5.281444 7.683513 2.140747 -5.894712 -9.561140 -1.902260 1.219675 -6.602338 -1.593184 4.621078 -46.706600 -31.082401 7.720188 -57.192753 -7.045297 13.010679 13.589343 -0.603639 -3.911794 -7.879905 7.555357 4.863399 38.570183 -43.521652 37.331409 45.134266 13.745055 20.955153 4.984780 -6.734410 -3.700871 11.498026 4.354154 7.544646 18.124277 -4.248032 2.095721 -20.073961 0.461149 -2.445670 -25.492472 -10.056134 -5.343626 35.374290 5.409352 2.939042 -2.860094 0.022070 -1.161414 
10.874814 49.123840 36.485512 -1.327556 -9.694713 -85.598259 0.000000 0.000000 0.000000 5.988736 -1.621964 -4.740650 8.455072 2.105045 -5.097795 -10.186034 -1.858360 1.579373 -6.098952 -1.274912 5.834428 -47.585526 -30.675728 6.529140 -57.323666 -6.728708 10.753996 15.354708 -0.788401 -3.989293 -6.466688 6.632851 6.002927 42.960918 -39.689781 34.393406 45.385197 13.690171 21.369108 3.445167 -7.249860 -3.680210 11.433661 4.228415 7.485503 15.747324 -4.229384 3.965300 -16.640839 0.303051 -2.065024 -27.135735 -9.237241 -5.658290 44.556587 4.306271 3.869846 -4.270531 0.068798 -1.581265 
12.551294 49.521252 36.474056 -0.723735 -9.930863 -86.896851 0.000000 0.000000 0.000000 6.281556 -1.533710 -4.670957 9.209296 2.187377 -4.397118 -10.506021 -1.624089 2.144406 -5.821851 -0.972459 6.133082 -48.466682 -27.797331 6.863912 -57.822067 -6.828023 7.954992 16.280565 -0.073725 -3.942404 -5.550191 6.064132 6.246202 45.576401 -34.986828 32.936852 46.547455 13.553544 19.603130 1.140893 -7.421382 -3.604596 10.953963 3.632815 6.699994 12.471489 -3.698479 6.886477 -12.871243 0.233851 -1.909273 -28.598728 -8.787588 -6.169358 53.655205 2.995872 3.862696 -5.571061 0.112757 -1.993880 
14.047820 49.780743 36.394272 0.267935 -10.234265 -87.646240 0.000000 0.000000 0.000000 6.309694 -1.067713 -4.493214 10.044585 2.548896 -3.988462 -10.601520 -1.383354 2.229720 -5.680295 -0.545877 6.224149 -49.308075 -24.146736 8.462950 -57.953915 -7.224890 6.875182 15.616548 0.836782 -3.800375 -5.245947 6.726323 6.332273 46.786579 -30.329803 31.696955 48.021957 13.248742 15.515182 -2.075812 -7.116829 -3.494690 10.192285 4.110971 6.536023 10.637872 -3.240879 8.204508 -10.108808 0.161868 -1.672391 -28.280342 -8.251790 -7.027153 61.461189 1.796787 3.597908 -6.627768 0.149350 -2.336016 
15.466199 49.858509 36.251316 1.021465 -10.027736 -87.864113 0.000000 0.000000 0.000000 6.084546 -0.776849 -3.920822 9.904992 2.972584 -3.792083 -9.830934 -1.519419 1.961286 -5.266734 -0.108833 6.064601 -50.936077 -21.027977 10.203045 -57.775711 -7.515501 8.345803 13.909325 1.730218 -3.671517 -5.220852 7.481555 6.215435 47.945450 -24.910164 30.555849 49.324902 12.870670 11.063327 -4.484444 -5.282800 -3.457349 7.915096 4.978844 6.659901 11.150851 -3.289734 8.312155 -8.600274 0.107273 -1.315219 -27.006517 -8.249767 -7.691407 67.529892 0.634855 4.157380 -6.628999 0.160159 -2.331194 
16.771189 49.826794 36.113018 1.099630 -9.675985 -87.851509 0.000000 0.000000 0.000000 5.811138 -0.816097 -2.905450 9.148781 2.784015 -3.537813 -8.791731 -0.987823 0.973473 -4.538365 -0.287171 5.833332 -52.498516 -17.703510 11.930621 -57.699081 -7.630762 11.657637 10.900805 2.572958 -3.555806 -4.738179 7.087978 5.999427 50.247158 -19.125856 28.870070 49.988369 12.294950 7.804934 -7.521094 -3.368685 -3.498520 5.426524 5.183571 6.419104 12.073694 -3.290075 8.921565 -7.381519 0.074703 -1.122315 -24.090334 -8.934992 -8.344436 71.025894 -0.282894 4.441582 -6.114065 0.131745 -2.169823 
17.985199 49.767151 35.958733 0.801858 -9.432687 -88.160187 0.000000 0.000000 0.000000 5.401251 -1.020839 -1.756830 8.685376 2.237878 -3.108535 -8.048811 -0.860764 0.198827 -3.597635 -1.688538 5.439457 -52.716175 -12.693520 14.054183 -58.153404 -8.192350 13.574192 9.246829 3.074851 -3.516758 -3.425302 6.533109 5.597852 51.938477 -13.438310 27.478966 49.805626 11.838067 7.551166 -10.295507 -3.695603 -3.476297 3.539630 4.974250 6.116899 12.435650 -3.319702 9.830070 -6.289466 0.058676 -0.965985 -19.576073 -9.919303 -9.159213 71.682693 -0.762030 3.999140 -5.232342 0.114652 -1.895475 
19.134148 49.703091 35.841324 0.336488 -9.335779 -88.463646 0.000000 0.000000 0.000000 4.883987 -1.255193 -0.839856 8.490277 1.535697 -2.638062 -7.500045 -0.131354 -0.596844 -2.548668 -3.203609 4.996993 -52.012077 -6.592722 16.541969 -58.681290 -9.295928 14.272759 8.723601 4.164690 -3.439689 -1.852294 6.371400 5.122371 52.346550 -7.867270 26.455187 50.342983 11.572760 7.600909 -10.548838 -4.251707 -3.434729 1.891168 4.612716 5.812831 12.828266 -3.350123 11.545623 -6.115140 0.054968 -0.881861 -13.559686 -11.000354 -10.617038 69.360664 -0.478374 3.599523 -4.746385 0.096055 -1.752237 
20.213503 49.669495 35.712078 0.049448 -9.082027 -88.720184 0.000000 0.000000 0.000000 4.015254 -1.607375 0.775629 8.189784 1.556714 -2.457727 -4.580812 0.599019 -2.112972 -0.576683 -1.517294 4.262675 -54.455917 -0.464103 20.259518 -57.006245 -10.308056 17.214012 7.054299 5.383018 -3.402816 -1.046405 5.962683 4.385489 53.507576 -3.675654 26.374725 49.955223 11.304325 7.826844 -11.374610 -2.909765 -3.542552 0.594880 4.293703 5.629841 12.475690 -3.329678 14.136942 -5.764307 0.049584 -0.819462 -6.269524 -12.060091 -13.641223 63.778450 1.103626 0.105481 -3.192574 0.018828 -1.375094 
21.284052 49.603676 35.503555 0.157796 -8.027313 -89.779037 0.000000 0.000000 0.000000 2.354016 -1.180644 2.890731 7.549238 1.225759 -1.859383 -2.191874 1.621198 -4.088254 1.333832 -1.138473 2.787921 -54.582630 6.526920 22.590111 -55.796291 -11.099808 20.243223 4.696782 7.234183 -3.392440 1.152472 5.690952 2.891779 53.559055 0.140216 26.641502 49.711304 11.619711 6.998679 -10.525214 -2.781628 -3.549382 -1.765422 4.982443 5.945198 12.912530 -3.602465 16.361370 -5.452910 0.056927 -0.762365 0.846837 -11.788342 -16.821550 55.567879 3.608329 -7.247036 -2.223638 0.016322 -0.677375 
22.377625 49.490799 35.299820 -0.324853 -7.236212 -91.004326 0.000000 0.000000 0.000000 0.976825 -1.327932 5.406827 7.229074 0.356323 -1.328539 -0.011314 2.925658 -6.409756 3.431935 -1.714132 1.556356 -53.705841 13.457639 23.760056 -54.357113 -11.588944 22.527361 1.981141 8.764581 -3.479510 3.744924 4.306734 1.636280 53.915096 3.659205 27.348667 48.820877 12.021668 6.441393 -8.825812 -2.674036 -3.551626 -3.531483 4.808293 6.022254 12.572966 -4.013697 18.208746 -4.851159 0.028591 -0.444199 10.041506 -11.205693 -19.629847 42.772743 6.913419 -15.190272 -4.791785 -0.145962 4.522044 
